<svg xmlns="http://www.w3.org/2000/svg" version="1.1" xmlns:xlink="http://www.w3.org/1999/xlink" xmlns:svgjs="http://svgjs.dev/svgjs" width="1440" height="560" preserveAspectRatio="none" viewBox="0 0 1440 560"><g mask="url(&quot;#SvgjsMask1012&quot;)" fill="none"><use xlink:href="#SvgjsSymbol1019" x="0" y="0"></use><use xlink:href="#SvgjsSymbol1019" x="720" y="0"></use></g><defs><mask id="SvgjsMask1012"><rect width="1440" height="560" fill="#ffffff"></rect></mask><path d="M-1 0 a1 1 0 1 0 2 0 a1 1 0 1 0 -2 0z" id="SvgjsPath1016"></path><path d="M-3 0 a3 3 0 1 0 6 0 a3 3 0 1 0 -6 0z" id="SvgjsPath1018"></path><path d="M-5 0 a5 5 0 1 0 10 0 a5 5 0 1 0 -10 0z" id="SvgjsPath1014"></path><path d="M2 -2 L-2 2z" id="SvgjsPath1017"></path><path d="M6 -6 L-6 6z" id="SvgjsPath1013"></path><path d="M30 -30 L-30 30z" id="SvgjsPath1015"></path></defs><symbol id="SvgjsSymbol1019"><use xlink:href="#SvgjsPath1013" x="30" y="30" stroke="rgba(0, 89, 179, 1)"></use><use xlink:href="#SvgjsPath1014" x="30" y="90" stroke="rgba(0, 89, 179, 1)"></use><use xlink:href="#SvgjsPath1013" x="30" y="150" stroke="rgba(0, 89, 179, 1)"></use><use xlink:href="#SvgjsPath1014" x="30" y="210" stroke="rgba(0, 89, 179, 1)"></use><use xlink:href="#SvgjsPath1014" x="30" y="270" stroke="rgba(0, 89, 179, 1)"></use><use xlink:href="#SvgjsPath1014" x="30" y="330" stroke="rgba(0, 89, 179, 1)"></use><use xlink:href="#SvgjsPath1015" x="30" y="390" stroke="rgba(0, 89, 179, 1)" stroke-width="3"></use><use xlink:href="#SvgjsPath1013" x="30" y="450" stroke="rgba(0, 89, 179, 1)"></use><use xlink:href="#SvgjsPath1013" x="30" y="510" stroke="rgba(0, 89, 179, 1)"></use><use xlink:href="#SvgjsPath1016" x="30" y="570" stroke="rgba(0, 89, 179, 1)"></use><use xlink:href="#SvgjsPath1013" x="90" y="30" stroke="rgba(0, 89, 179, 1)"></use><use xlink:href="#SvgjsPath1013" x="90" y="90" stroke="rgba(0, 89, 179, 1)"></use><use xlink:href="#SvgjsPath1014" x="90" y="150" stroke="rgba(0, 89, 179, 1)"></use><use xlink:href="#SvgjsPath1015" x="90" y="210" stroke="rgba(0, 89, 179, 1)" stroke-width="3"></use><use xlink:href="#SvgjsPath1017" x="90" y="270" stroke="rgba(0, 89, 179, 1)"></use><use xlink:href="#SvgjsPath1013" x="90" y="330" stroke="rgba(0, 89, 179, 1)"></use><use xlink:href="#SvgjsPath1014" x="90" y="390" stroke="rgba(0, 89, 179, 1)"></use><use xlink:href="#SvgjsPath1018" x="90" y="450" stroke="rgba(0, 89, 179, 1)"></use><use xlink:href="#SvgjsPath1016" x="90" y="510" stroke="rgba(0, 89, 179, 1)"></use><use xlink:href="#SvgjsPath1013" x="90" y="570" stroke="rgba(0, 89, 179, 1)"></use><use xlink:href="#SvgjsPath1015" x="150" y="30" stroke="rgba(0, 89, 179, 1)" stroke-width="3"></use><use xlink:href="#SvgjsPath1014" x="150" y="90" stroke="rgba(0, 89, 179, 1)"></use><use xlink:href="#SvgjsPath1013" x="150" y="150" stroke="rgba(0, 89, 179, 1)"></use><use xlink:href="#SvgjsPath1013" x="150" y="210" stroke="rgba(0, 89, 179, 1)"></use><use xlink:href="#SvgjsPath1014" x="150" y="270" stroke="rgba(0, 89, 179, 1)"></use><use xlink:href="#SvgjsPath1013" x="150" y="330" stroke="rgba(0, 89, 179, 1)"></use><use xlink:href="#SvgjsPath1014" x="150" y="390" stroke="rgba(0, 89, 179, 1)"></use><use xlink:href="#SvgjsPath1018" x="150" y="450" stroke="rgba(0, 89, 179, 1)"></use><use xlink:href="#SvgjsPath1013" x="150" y="510" stroke="rgba(0, 89, 179, 1)"></use><use xlink:href="#SvgjsPath1013" x="150" y="570" stroke="rgba(0, 89, 179, 1)"></use><use xlink:href="#SvgjsPath1016" x="210" y="30" stroke="rgba(0, 89, 179, 1)"></use><use xlink:href="#SvgjsPath1013" x="210" y="90" stroke="rgba(0, 89, 179, 1)"></use><use xlink:href="#SvgjsPath1014" x="210" y="150" stroke="rgba(0, 89, 179, 1)"></use><use xlink:href="#SvgjsPath1013" x="210" y="210" stroke="rgba(0, 89, 179, 1)"></use><use xlink:href="#SvgjsPath1013" x="210" y="270" stroke="rgba(0, 89, 179, 1)"></use><use xlink:href="#SvgjsPath1014" x="210" y="330" stroke="rgba(0, 89, 179, 1)"></use><use xlink:href="#SvgjsPath1013" x="210" y="390" stroke="rgba(0, 89, 179, 1)"></use><use xlink:href="#SvgjsPath1013" x="210" y="450" stroke="rgba(0, 89, 179, 1)"></use><use xlink:href="#SvgjsPath1013" x="210" y="510" stroke="rgba(0, 89, 179, 1)"></use><use xlink:href="#SvgjsPath1013" x="210" y="570" stroke="rgba(0, 89, 179, 1)"></use><use xlink:href="#SvgjsPath1015" x="270" y="30" stroke="rgba(0, 89, 179, 1)" stroke-width="3"></use><use xlink:href="#SvgjsPath1014" x="270" y="90" stroke="rgba(0, 89, 179, 1)"></use><use xlink:href="#SvgjsPath1014" x="270" y="150" stroke="rgba(0, 89, 179, 1)"></use><use xlink:href="#SvgjsPath1013" x="270" y="210" stroke="rgba(0, 89, 179, 1)"></use><use xlink:href="#SvgjsPath1014" x="270" y="270" stroke="rgba(0, 89, 179, 1)"></use><use xlink:href="#SvgjsPath1013" x="270" y="330" stroke="rgba(0, 89, 179, 1)"></use><use xlink:href="#SvgjsPath1013" x="270" y="390" stroke="rgba(0, 89, 179, 1)"></use><use xlink:href="#SvgjsPath1018" x="270" y="450" stroke="rgba(0, 89, 179, 1)"></use><use xlink:href="#SvgjsPath1014" x="270" y="510" stroke="rgba(0, 89, 179, 1)"></use><use xlink:href="#SvgjsPath1016" x="270" y="570" stroke="rgba(0, 89, 179, 1)"></use><use xlink:href="#SvgjsPath1013" x="330" y="30" stroke="rgba(0, 89, 179, 1)"></use><use xlink:href="#SvgjsPath1014" x="330" y="90" stroke="rgba(0, 89, 179, 1)"></use><use xlink:href="#SvgjsPath1016" x="330" y="150" stroke="rgba(0, 89, 179, 1)"></use><use xlink:href="#SvgjsPath1013" x="330" y="210" stroke="rgba(0, 89, 179, 1)"></use><use xlink:href="#SvgjsPath1017" x="330" y="270" stroke="rgba(0, 89, 179, 1)"></use><use xlink:href="#SvgjsPath1014" x="330" y="330" stroke="rgba(0, 89, 179, 1)"></use><use xlink:href="#SvgjsPath1014" x="330" y="390" stroke="rgba(0, 89, 179, 1)"></use><use xlink:href="#SvgjsPath1016" x="330" y="450" stroke="rgba(0, 89, 179, 1)"></use><use xlink:href="#SvgjsPath1015" x="330" y="510" stroke="rgba(0, 89, 179, 1)" stroke-width="3"></use><use xlink:href="#SvgjsPath1016" x="330" y="570" stroke="rgba(0, 89, 179, 1)"></use><use xlink:href="#SvgjsPath1016" x="390" y="30" stroke="rgba(0, 89, 179, 1)"></use><use xlink:href="#SvgjsPath1014" x="390" y="90" stroke="rgba(0, 89, 179, 1)"></use><use xlink:href="#SvgjsPath1013" x="390" y="150" stroke="rgba(0, 89, 179, 1)"></use><use xlink:href="#SvgjsPath1013" x="390" y="210" stroke="rgba(0, 89, 179, 1)"></use><use xlink:href="#SvgjsPath1013" x="390" y="270" stroke="rgba(0, 89, 179, 1)"></use><use xlink:href="#SvgjsPath1013" x="390" y="330" stroke="rgba(0, 89, 179, 1)"></use><use xlink:href="#SvgjsPath1014" x="390" y="390" stroke="rgba(0, 89, 179, 1)"></use><use xlink:href="#SvgjsPath1013" x="390" y="450" stroke="rgba(0, 89, 179, 1)"></use><use xlink:href="#SvgjsPath1013" x="390" y="510" stroke="rgba(0, 89, 179, 1)"></use><use xlink:href="#SvgjsPath1017" x="390" y="570" stroke="rgba(0, 89, 179, 1)"></use><use xlink:href="#SvgjsPath1014" x="450" y="30" stroke="rgba(0, 89, 179, 1)"></use><use xlink:href="#SvgjsPath1017" x="450" y="90" stroke="rgba(0, 89, 179, 1)"></use><use xlink:href="#SvgjsPath1015" x="450" y="150" stroke="rgba(0, 89, 179, 1)" stroke-width="3"></use><use xlink:href="#SvgjsPath1013" x="450" y="210" stroke="rgba(0, 89, 179, 1)"></use><use xlink:href="#SvgjsPath1017" x="450" y="270" stroke="rgba(0, 89, 179, 1)"></use><use xlink:href="#SvgjsPath1018" x="450" y="330" stroke="rgba(0, 89, 179, 1)"></use><use xlink:href="#SvgjsPath1013" x="450" y="390" stroke="rgba(0, 89, 179, 1)"></use><use xlink:href="#SvgjsPath1013" x="450" y="450" stroke="rgba(0, 89, 179, 1)"></use><use xlink:href="#SvgjsPath1017" x="450" y="510" stroke="rgba(0, 89, 179, 1)"></use><use xlink:href="#SvgjsPath1014" x="450" y="570" stroke="rgba(0, 89, 179, 1)"></use><use xlink:href="#SvgjsPath1014" x="510" y="30" stroke="rgba(0, 89, 179, 1)"></use><use xlink:href="#SvgjsPath1014" x="510" y="90" stroke="rgba(0, 89, 179, 1)"></use><use xlink:href="#SvgjsPath1014" x="510" y="150" stroke="rgba(0, 89, 179, 1)"></use><use xlink:href="#SvgjsPath1013" x="510" y="210" stroke="rgba(0, 89, 179, 1)"></use><use xlink:href="#SvgjsPath1014" x="510" y="270" stroke="rgba(0, 89, 179, 1)"></use><use xlink:href="#SvgjsPath1014" x="510" y="330" stroke="rgba(0, 89, 179, 1)"></use><use xlink:href="#SvgjsPath1017" x="510" y="390" stroke="rgba(0, 89, 179, 1)"></use><use xlink:href="#SvgjsPath1013" x="510" y="450" stroke="rgba(0, 89, 179, 1)"></use><use xlink:href="#SvgjsPath1018" x="510" y="510" stroke="rgba(0, 89, 179, 1)"></use><use xlink:href="#SvgjsPath1014" x="510" y="570" stroke="rgba(0, 89, 179, 1)"></use><use xlink:href="#SvgjsPath1013" x="570" y="30" stroke="rgba(0, 89, 179, 1)"></use><use xlink:href="#SvgjsPath1014" x="570" y="90" stroke="rgba(0, 89, 179, 1)"></use><use xlink:href="#SvgjsPath1018" x="570" y="150" stroke="rgba(0, 89, 179, 1)"></use><use xlink:href="#SvgjsPath1017" x="570" y="210" stroke="rgba(0, 89, 179, 1)"></use><use xlink:href="#SvgjsPath1015" x="570" y="270" stroke="rgba(0, 89, 179, 1)" stroke-width="3"></use><use xlink:href="#SvgjsPath1017" x="570" y="330" stroke="rgba(0, 89, 179, 1)"></use><use xlink:href="#SvgjsPath1016" x="570" y="390" stroke="rgba(0, 89, 179, 1)"></use><use xlink:href="#SvgjsPath1013" x="570" y="450" stroke="rgba(0, 89, 179, 1)"></use><use xlink:href="#SvgjsPath1013" x="570" y="510" stroke="rgba(0, 89, 179, 1)"></use><use xlink:href="#SvgjsPath1013" x="570" y="570" stroke="rgba(0, 89, 179, 1)"></use><use xlink:href="#SvgjsPath1014" x="630" y="30" stroke="rgba(0, 89, 179, 1)"></use><use xlink:href="#SvgjsPath1013" x="630" y="90" stroke="rgba(0, 89, 179, 1)"></use><use xlink:href="#SvgjsPath1014" x="630" y="150" stroke="rgba(0, 89, 179, 1)"></use><use xlink:href="#SvgjsPath1014" x="630" y="210" stroke="rgba(0, 89, 179, 1)"></use><use xlink:href="#SvgjsPath1017" x="630" y="270" stroke="rgba(0, 89, 179, 1)"></use><use xlink:href="#SvgjsPath1018" x="630" y="330" stroke="rgba(0, 89, 179, 1)"></use><use xlink:href="#SvgjsPath1016" x="630" y="390" stroke="rgba(0, 89, 179, 1)"></use><use xlink:href="#SvgjsPath1013" x="630" y="450" stroke="rgba(0, 89, 179, 1)"></use><use xlink:href="#SvgjsPath1013" x="630" y="510" stroke="rgba(0, 89, 179, 1)"></use><use xlink:href="#SvgjsPath1016" x="630" y="570" stroke="rgba(0, 89, 179, 1)"></use><use xlink:href="#SvgjsPath1014" x="690" y="30" stroke="rgba(0, 89, 179, 1)"></use><use xlink:href="#SvgjsPath1017" x="690" y="90" stroke="rgba(0, 89, 179, 1)"></use><use xlink:href="#SvgjsPath1013" x="690" y="150" stroke="rgba(0, 89, 179, 1)"></use><use xlink:href="#SvgjsPath1018" x="690" y="210" stroke="rgba(0, 89, 179, 1)"></use><use xlink:href="#SvgjsPath1014" x="690" y="270" stroke="rgba(0, 89, 179, 1)"></use><use xlink:href="#SvgjsPath1018" x="690" y="330" stroke="rgba(0, 89, 179, 1)"></use><use xlink:href="#SvgjsPath1016" x="690" y="390" stroke="rgba(0, 89, 179, 1)"></use><use xlink:href="#SvgjsPath1013" x="690" y="450" stroke="rgba(0, 89, 179, 1)"></use><use xlink:href="#SvgjsPath1013" x="690" y="510" stroke="rgba(0, 89, 179, 1)"></use><use xlink:href="#SvgjsPath1014" x="690" y="570" stroke="rgba(0, 89, 179, 1)"></use></symbol></svg>