<svg id="visual" viewBox="0 0 900 600" width="900" height="600" xmlns="http://www.w3.org/2000/svg" xmlns:xlink="http://www.w3.org/1999/xlink" version="1.1"><g transform="translate(489.1691757039573 316.4882968397617)"><path d="M92.8 -125.5C119.3 -88.5 138.9 -58.2 158.4 -17.6C177.9 23 197.2 74 184.9 117.5C172.6 161 128.7 197 84.1 199.7C39.4 202.4 -5.9 171.7 -63.4 157.8C-120.8 144 -190.3 147 -228.5 115.2C-266.8 83.5 -273.7 17 -261.8 -45.4C-249.9 -107.8 -219.1 -166.1 -172.3 -199.5C-125.6 -233 -62.8 -241.5 -14.8 -223.9C33.2 -206.2 66.4 -162.5 92.8 -125.5" fill="#3399ff"></path></g></svg>