<svg xmlns="http://www.w3.org/2000/svg" viewBox="0 0 500 500"><g id="freepik--Files--inject-246"><path d="M328.71,115.68H314.14a2.4,2.4,0,0,1,0-4.79h14.57a2.4,2.4,0,0,1,0,4.79Z" style="fill:#3399FF"></path><g style="opacity:0.7000000000000001"><path d="M328.71,115.68H314.14a2.4,2.4,0,0,1,0-4.79h14.57a2.4,2.4,0,0,1,0,4.79Z" style="fill:#fff"></path></g><path d="M382.16,164.79,326.3,267.59a2.73,2.73,0,0,1-3.7,1.09L227.55,217a2.73,2.73,0,0,1-1.09-3.7L299.11,79.62a2.73,2.73,0,0,1,3.7-1.09l64,34.8Z" style="fill:#3399FF"></path><g style="opacity:0.2"><path d="M382.16,164.79,326.3,267.59a2.73,2.73,0,0,1-3.7,1.09L227.55,217a2.73,2.73,0,0,1-1.09-3.7L299.11,79.62a2.73,2.73,0,0,1,3.7-1.09l64,34.8Z" style="fill:#fff"></path></g><rect x="273.81" y="168.41" width="80.66" height="5" transform="translate(118.81 -128.66) rotate(28.35)" style="fill:#3399FF"></rect><rect x="264.11" y="186.39" width="80.66" height="5" transform="translate(126.19 -121.9) rotate(28.35)" style="fill:#3399FF"></rect><rect x="254.41" y="204.37" width="80.66" height="5" transform="translate(133.56 -115.13) rotate(28.35)" style="fill:#3399FF"></rect><path d="M366.94,113.28l-16.84,31a2.73,2.73,0,0,0,1.09,3.7l30.91,16.8Z" style="fill:#3399FF"></path><path d="M366.94,113.28l-16.84,31a2.73,2.73,0,0,0,1.09,3.7l30.91,16.8Z" style="fill:#fff;opacity:0.7000000000000001"></path><path d="M396.72,161.33l-55.85,102.8a2.73,2.73,0,0,1-3.7,1.09l-95.05-51.64a2.73,2.73,0,0,1-1.1-3.7L313.67,76.17a2.73,2.73,0,0,1,3.7-1.1l64.05,34.8Z" style="fill:#3399FF"></path><g style="opacity:0.5"><path d="M396.72,161.33l-55.85,102.8a2.73,2.73,0,0,1-3.7,1.09l-95.05-51.64a2.73,2.73,0,0,1-1.1-3.7L313.67,76.17a2.73,2.73,0,0,1,3.7-1.1l64.05,34.8Z" style="fill:#fff"></path></g><path d="M363.49,183.38l-67.2-36.25a2.14,2.14,0,0,0-2.91.87l-.33.61a2.15,2.15,0,0,0,.87,2.92l67.2,36.25a2.15,2.15,0,0,0,2.91-.87l.33-.62A2.14,2.14,0,0,0,363.49,183.38Z" style="fill:#3399FF"></path><rect x="278.68" y="182.93" width="80.66" height="5" rx="2.15" transform="translate(126.29 -129.23) rotate(28.35)" style="fill:#3399FF"></rect><rect x="268.98" y="200.92" width="80.66" height="5" rx="2.15" transform="translate(133.67 -122.46) rotate(28.35)" style="fill:#3399FF"></rect><path d="M381.51,109.83l-16.85,31a2.71,2.71,0,0,0,1.1,3.69l30.91,16.8Z" style="fill:#3399FF"></path><path d="M381.51,109.83l-16.85,31a2.71,2.71,0,0,0,1.1,3.69l30.91,16.8Z" style="fill:#fff;opacity:0.7000000000000001"></path><path d="M377.65,62.7l4.7,20.87c-17.8,4.88-33.77,22.5-45.26,39.14A96.21,96.21,0,0,0,325.84,145s35.9-32.47,55.69-34.37l-.95,34.49s20.53-40,60.38-54.6C441,90.51,407.58,66.47,377.65,62.7Z" style="fill:#3399FF"></path></g></svg>