<svg xmlns="http://www.w3.org/2000/svg" version="1.1" xmlns:xlink="http://www.w3.org/1999/xlink" xmlns:svgjs="http://svgjs.dev/svgjs" width="1440" height="560" preserveAspectRatio="none" viewBox="0 0 1440 560"><g mask="url(&quot;#SvgjsMask1014&quot;)" fill="none"><rect width="1440" height="560" x="0" y="0" fill="url(&quot;#SvgjsLinearGradient1015&quot;)"></rect><path d="M1440 0L1078.97 0L1440 236.52z" fill="rgba(255, 255, 255, .1)"></path><path d="M1078.97 0L1440 236.52L1440 289.55L955.53 0z" fill="rgba(255, 255, 255, .075)"></path><path d="M955.53 0L1440 289.55L1440 322.81L490.4 0z" fill="rgba(255, 255, 255, .05)"></path><path d="M490.4000000000001 0L1440 322.81L1440 348.45L262.1600000000001 0z" fill="rgba(255, 255, 255, .025)"></path><path d="M0 560L305.43 560L0 458.24z" fill="rgba(0, 0, 0, .1)"></path><path d="M0 458.24L305.43 560L631.9300000000001 560L0 261.55z" fill="rgba(0, 0, 0, .075)"></path><path d="M0 261.55L631.9300000000001 560L865.09 560L0 113.72z" fill="rgba(0, 0, 0, .05)"></path><path d="M0 113.72000000000003L865.09 560L1274.03 560L0 77.90000000000003z" fill="rgba(0, 0, 0, .025)"></path></g><defs><mask id="SvgjsMask1014"><rect width="1440" height="560" fill="#ffffff"></rect></mask><linearGradient x1="15.28%" y1="-39.29%" x2="84.72%" y2="139.29%" gradientUnits="userSpaceOnUse" id="SvgjsLinearGradient1015"><stop stop-color="#0e2a47" offset="0"></stop><stop stop-color="rgba(16, 20, 25, 1)" offset="1"></stop></linearGradient></defs></svg>