<?xml version="1.0" standalone="no"?>
<!DOCTYPE svg PUBLIC "-//W3C//DTD SVG 20010904//EN"
 "http://www.w3.org/TR/2001/REC-SVG-20010904/DTD/svg10.dtd">
<svg version="1.0" xmlns="http://www.w3.org/2000/svg"
 width="300.000000pt" height="220.000000pt" viewBox="0 0 300.000000 220.000000"
 preserveAspectRatio="xMidYMid meet">
<metadata>
Created by potrace 1.10, written by Peter Selinger 2001-2011
</metadata>
<g transform="translate(0.000000,220.000000) scale(0.100000,-0.100000)"
fill="#000000" stroke="none">
<path d="M1416 2075 c-9 -68 -23 -143 -31 -166 -8 -23 -15 -67 -15 -98 0 -31
-7 -84 -15 -116 -18 -68 -106 -239 -189 -367 -51 -80 -205 -248 -285 -312 -18
-15 -31 -30 -27 -33 3 -4 22 8 40 26 19 18 39 31 44 27 5 -3 20 6 33 20 13 14
22 27 19 28 -3 1 16 26 43 55 26 29 47 49 47 43 0 -6 -21 -31 -46 -56 -25 -25
-41 -46 -35 -46 6 0 24 15 40 33 152 165 210 241 272 355 39 70 44 75 50 52 4
-14 8 -45 8 -70 1 -25 10 -70 21 -100 11 -30 19 -70 20 -88 0 -18 9 -54 21
-79 46 -102 59 -235 39 -423 -6 -52 -12 -168 -14 -257 -3 -144 -6 -166 -25
-198 -24 -41 -26 -49 -9 -39 7 4 8 3 4 -5 -4 -6 -11 -9 -16 -6 -8 5 -40 -32
-40 -46 0 -18 33 1 55 31 27 37 30 45 15 35 -15 -9 -12 1 10 37 17 29 20 51
20 174 0 77 7 212 16 299 14 145 14 166 -1 254 -9 53 -24 114 -34 136 -11 22
-22 65 -26 95 -3 30 -15 74 -25 98 -11 25 -17 54 -14 70 3 15 -1 48 -9 73 -12
40 -12 50 0 75 l14 29 -20 -25 c-11 -14 -43 -65 -71 -115 -65 -114 -101 -164
-169 -234 -36 -38 -42 -42 -20 -14 40 48 139 208 193 307 51 97 74 168 81 261
3 44 12 103 20 130 8 28 19 93 25 145 6 52 14 103 16 113 3 9 1 17 -4 17 -5 0
-17 -56 -26 -125z"/>
<path d="M1464 2176 c-3 -13 0 -34 6 -47 13 -24 5 -98 -25 -226 -26 -107 -40
-309 -26 -378 6 -33 18 -101 26 -151 8 -49 23 -115 34 -145 52 -140 64 -286
37 -462 -8 -50 -18 -173 -21 -272 -8 -224 8 -346 58 -437 17 -32 35 -58 40
-58 5 0 -7 28 -26 62 -36 66 -43 91 -57 215 -11 99 4 412 25 534 11 62 15 120
11 169 -4 51 -2 70 4 60 6 -8 35 -55 66 -105 81 -131 127 -189 179 -224 25
-17 45 -26 45 -20 0 6 5 7 10 4 14 -9 12 12 -2 24 -95 76 -126 118 -248 335
-39 71 -83 146 -96 166 -17 26 -27 61 -35 121 -6 46 -17 104 -25 129 -24 76
-15 332 16 435 5 17 14 65 21 108 14 92 17 91 88 -27 59 -97 93 -131 186 -182
109 -62 127 -71 175 -98 25 -13 68 -42 95 -65 27 -22 61 -43 77 -46 15 -4 30
-11 33 -16 4 -5 14 -9 24 -9 10 0 48 -15 85 -33 55 -28 66 -31 66 -17 0 16
-83 60 -189 101 -19 7 -49 25 -65 40 -41 35 -135 94 -226 142 -112 59 -154 91
-188 144 -29 46 -104 197 -118 238 -4 13 -8 16 -11 7 -6 -16 75 -187 120 -255
18 -26 54 -62 80 -79 53 -34 58 -52 5 -20 -48 30 -90 78 -138 157 -24 39 -54
83 -67 99 -35 41 -46 75 -32 92 8 10 8 14 0 14 -6 0 -13 -11 -17 -24z m349
-377 c108 -54 305 -189 277 -189 -7 0 -33 18 -58 41 -26 22 -97 68 -159 101
-102 54 -124 68 -108 68 3 0 25 -10 48 -21z m-197 -799 c79 -141 155 -246 194
-268 17 -9 30 -21 30 -26 0 -10 -44 17 -79 48 -13 11 -58 74 -100 138 -107
165 -127 199 -135 230 -3 14 -8 34 -12 45 -7 22 18 -18 102 -167z"/>
<path d="M1458 304 c-4 -5 0 -34 8 -64 8 -30 14 -70 14 -89 0 -22 12 -53 37
-90 44 -68 42 -65 48 -60 2 3 -11 28 -29 55 -26 38 -37 69 -45 126 -15 95 -26
135 -33 122z"/>
<path d="M1335 149 c-20 -39 -22 -48 -10 -53 16 -6 50 59 39 75 -3 5 0 8 7 7
6 -2 13 2 16 8 2 6 -4 11 -12 11 -9 0 -27 -21 -40 -48z"/>
</g>
</svg>
